<svg width="1361" height="285" viewBox="0 0 1361 285" fill="none" xmlns="http://www.w3.org/2000/svg">
<path d="M379.805 236.769V97.5164H332.221V73.4912H457.478V97.5164H409.661V236.769H379.805ZM488.31 236.769L454.488 121.075H484.111L504.171 204.347L527.497 121.075H560.619L583.944 204.347L604.237 121.075H633.861L599.806 236.769H568.783L544.058 150.232L519.333 236.769H488.31ZM704.112 239.568C692.916 239.568 682.808 237.003 673.789 231.871C664.925 226.739 657.85 219.664 652.563 210.645C647.431 201.47 644.866 190.896 644.866 178.922C644.866 166.948 647.509 156.452 652.796 147.433C658.083 138.258 665.159 131.105 674.022 125.973C683.041 120.842 693.149 118.276 704.345 118.276C715.386 118.276 725.338 120.842 734.202 125.973C743.221 131.105 750.297 138.258 755.428 147.433C760.715 156.452 763.359 166.948 763.359 178.922C763.359 190.896 760.715 201.47 755.428 210.645C750.297 219.664 743.221 226.739 734.202 231.871C725.183 237.003 715.153 239.568 704.112 239.568ZM704.112 213.677C711.887 213.677 718.652 210.8 724.405 205.047C730.159 199.138 733.036 190.429 733.036 178.922C733.036 167.415 730.159 158.785 724.405 153.031C718.652 147.122 711.965 144.167 704.345 144.167C696.415 144.167 689.573 147.122 683.819 153.031C678.221 158.785 675.422 167.415 675.422 178.922C675.422 190.429 678.221 199.138 683.819 205.047C689.573 210.8 696.337 213.677 704.112 213.677ZM846.501 239.568C834.528 239.568 823.953 237.547 814.779 233.504C805.604 229.305 798.373 223.396 793.086 215.776C787.799 208.001 785.078 198.593 784.922 187.553H816.411C816.722 195.172 819.444 201.626 824.575 206.913C829.862 212.044 837.093 214.61 846.268 214.61C854.199 214.61 860.497 212.744 865.162 209.012C869.827 205.124 872.159 199.993 872.159 193.617C872.159 186.931 870.06 181.721 865.861 177.989C861.818 174.257 856.376 171.225 849.534 168.892C842.691 166.56 835.383 164.072 827.608 161.428C815.012 157.074 805.371 151.476 798.684 144.634C792.153 137.792 788.887 128.695 788.887 117.343C788.732 107.702 790.987 99.4602 795.652 92.618C800.472 85.6204 807.003 80.2555 815.245 76.5235C823.487 72.6359 832.972 70.6921 843.702 70.6921C854.587 70.6921 864.151 72.6359 872.392 76.5235C880.79 80.411 887.321 85.8536 891.986 92.8513C896.806 99.8489 899.372 108.168 899.683 117.81H867.727C867.572 112.056 865.317 107.002 860.963 102.648C856.764 98.1384 850.855 95.8836 843.236 95.8836C836.705 95.7281 831.184 97.3609 826.675 100.782C822.321 104.047 820.143 108.868 820.143 115.244C820.143 120.686 821.854 125.04 825.275 128.306C828.696 131.416 833.361 134.06 839.27 136.237C845.179 138.414 851.944 140.746 859.563 143.234C867.65 146.033 875.036 149.299 881.723 153.031C888.409 156.763 893.774 161.739 897.817 167.959C901.86 174.024 903.882 181.877 903.882 191.518C903.882 200.071 901.705 208.001 897.351 215.31C892.997 222.619 886.543 228.528 877.991 233.037C869.438 237.391 858.941 239.568 846.501 239.568ZM929.232 236.769V68.8261H959.088V236.769H929.232ZM1029.48 239.568C1019.53 239.568 1011.37 238.013 1004.99 234.903C998.615 231.638 993.872 227.361 990.762 222.074C987.652 216.787 986.097 210.956 986.097 204.58C986.097 193.85 990.295 185.142 998.692 178.456C1007.09 171.769 1019.69 168.426 1036.48 168.426H1065.87V165.627C1065.87 157.696 1063.61 151.865 1059.11 148.133C1054.6 144.401 1049 142.534 1042.31 142.534C1036.25 142.534 1030.96 144.012 1026.45 146.966C1021.94 149.765 1019.14 153.964 1018.05 159.562H988.896C989.673 151.165 992.472 143.856 997.293 137.636C1002.27 131.416 1008.64 126.673 1016.42 123.408C1024.19 119.987 1032.9 118.276 1042.54 118.276C1059.03 118.276 1072.01 122.397 1081.5 130.639C1090.98 138.88 1095.73 150.543 1095.73 165.627V236.769H1070.3L1067.5 218.109C1064.08 224.329 1059.26 229.461 1053.04 233.504C1046.98 237.547 1039.12 239.568 1029.48 239.568ZM1036.25 216.243C1044.8 216.243 1051.41 213.444 1056.07 207.846C1060.89 202.248 1063.93 195.328 1065.17 187.086H1039.75C1031.81 187.086 1026.14 188.563 1022.72 191.518C1019.3 194.317 1017.59 197.816 1017.59 202.014C1017.59 206.524 1019.3 210.023 1022.72 212.511C1026.14 214.999 1030.65 216.243 1036.25 216.243ZM1172.04 239.568C1161.77 239.568 1152.75 237.936 1144.98 234.67C1137.2 231.249 1130.98 226.584 1126.32 220.675C1121.65 214.766 1118.85 207.923 1117.92 200.148H1148.01C1148.94 204.658 1151.43 208.545 1155.47 211.811C1159.67 214.921 1165.04 216.476 1171.57 216.476C1178.1 216.476 1182.84 215.154 1185.8 212.511C1188.91 209.867 1190.46 206.835 1190.46 203.414C1190.46 198.438 1188.29 195.094 1183.93 193.384C1179.58 191.518 1173.51 189.73 1165.74 188.019C1160.76 186.931 1155.71 185.609 1150.58 184.054C1145.44 182.499 1140.7 180.555 1136.35 178.222C1132.15 175.734 1128.73 172.624 1126.08 168.892C1123.44 165.005 1122.12 160.262 1122.12 154.664C1122.12 144.401 1126.16 135.77 1134.25 128.772C1142.49 121.775 1154 118.276 1168.77 118.276C1182.45 118.276 1193.34 121.464 1201.43 127.839C1209.67 134.215 1214.57 143.001 1216.12 154.197H1187.9C1186.19 145.645 1179.73 141.368 1168.54 141.368C1162.94 141.368 1158.58 142.457 1155.47 144.634C1152.52 146.811 1151.04 149.532 1151.04 152.798C1151.04 156.219 1153.3 158.94 1157.81 160.962C1162.32 162.983 1168.3 164.849 1175.77 166.56C1183.85 168.426 1191.24 170.525 1197.93 172.858C1204.77 175.035 1210.21 178.378 1214.25 182.888C1218.3 187.242 1220.32 193.539 1220.32 201.781C1220.47 208.934 1218.61 215.388 1214.72 221.141C1210.83 226.895 1205.24 231.404 1197.93 234.67C1190.62 237.936 1181.99 239.568 1172.04 239.568ZM1246.77 236.769V68.8261H1276.62V138.802C1280.51 132.427 1285.72 127.451 1292.25 123.874C1298.94 120.142 1306.56 118.276 1315.11 118.276C1329.42 118.276 1340.46 122.786 1348.23 131.805C1356.16 140.824 1360.13 154.042 1360.13 171.458V236.769H1330.51V174.257C1330.51 164.305 1328.48 156.685 1324.44 151.398C1320.55 146.111 1314.33 143.468 1305.78 143.468C1297.38 143.468 1290.39 146.422 1284.79 152.331C1279.35 158.24 1276.62 166.482 1276.62 177.056V236.769H1246.77Z" fill="black"/>
<path d="M379.805 236.769V97.5164H332.221V73.4912H457.478V97.5164H409.661V236.769H379.805ZM488.31 236.769L454.488 121.075H484.111L504.171 204.347L527.497 121.075H560.619L583.944 204.347L604.237 121.075H633.861L599.806 236.769H568.783L544.058 150.232L519.333 236.769H488.31ZM704.112 239.568C692.916 239.568 682.808 237.003 673.789 231.871C664.925 226.739 657.85 219.664 652.563 210.645C647.431 201.47 644.866 190.896 644.866 178.922C644.866 166.948 647.509 156.452 652.796 147.433C658.083 138.258 665.159 131.105 674.022 125.973C683.041 120.842 693.149 118.276 704.345 118.276C715.386 118.276 725.338 120.842 734.202 125.973C743.221 131.105 750.297 138.258 755.428 147.433C760.715 156.452 763.359 166.948 763.359 178.922C763.359 190.896 760.715 201.47 755.428 210.645C750.297 219.664 743.221 226.739 734.202 231.871C725.183 237.003 715.153 239.568 704.112 239.568ZM704.112 213.677C711.887 213.677 718.652 210.8 724.405 205.047C730.159 199.138 733.036 190.429 733.036 178.922C733.036 167.415 730.159 158.785 724.405 153.031C718.652 147.122 711.965 144.167 704.345 144.167C696.415 144.167 689.573 147.122 683.819 153.031C678.221 158.785 675.422 167.415 675.422 178.922C675.422 190.429 678.221 199.138 683.819 205.047C689.573 210.8 696.337 213.677 704.112 213.677ZM846.501 239.568C834.528 239.568 823.953 237.547 814.779 233.504C805.604 229.305 798.373 223.396 793.086 215.776C787.799 208.001 785.078 198.593 784.922 187.553H816.411C816.722 195.172 819.444 201.626 824.575 206.913C829.862 212.044 837.093 214.61 846.268 214.61C854.199 214.61 860.497 212.744 865.162 209.012C869.827 205.124 872.159 199.993 872.159 193.617C872.159 186.931 870.06 181.721 865.861 177.989C861.818 174.257 856.376 171.225 849.534 168.892C842.691 166.56 835.383 164.072 827.608 161.428C815.012 157.074 805.371 151.476 798.684 144.634C792.153 137.792 788.887 128.695 788.887 117.343C788.732 107.702 790.987 99.4602 795.652 92.618C800.472 85.6204 807.003 80.2555 815.245 76.5235C823.487 72.6359 832.972 70.6921 843.702 70.6921C854.587 70.6921 864.151 72.6359 872.392 76.5235C880.79 80.411 887.321 85.8536 891.986 92.8513C896.806 99.8489 899.372 108.168 899.683 117.81H867.727C867.572 112.056 865.317 107.002 860.963 102.648C856.764 98.1384 850.855 95.8836 843.236 95.8836C836.705 95.7281 831.184 97.3609 826.675 100.782C822.321 104.047 820.143 108.868 820.143 115.244C820.143 120.686 821.854 125.04 825.275 128.306C828.696 131.416 833.361 134.06 839.27 136.237C845.179 138.414 851.944 140.746 859.563 143.234C867.65 146.033 875.036 149.299 881.723 153.031C888.409 156.763 893.774 161.739 897.817 167.959C901.86 174.024 903.882 181.877 903.882 191.518C903.882 200.071 901.705 208.001 897.351 215.31C892.997 222.619 886.543 228.528 877.991 233.037C869.438 237.391 858.941 239.568 846.501 239.568ZM929.232 236.769V68.8261H959.088V236.769H929.232ZM1029.48 239.568C1019.53 239.568 1011.37 238.013 1004.99 234.903C998.615 231.638 993.872 227.361 990.762 222.074C987.652 216.787 986.097 210.956 986.097 204.58C986.097 193.85 990.295 185.142 998.692 178.456C1007.09 171.769 1019.69 168.426 1036.48 168.426H1065.87V165.627C1065.87 157.696 1063.61 151.865 1059.11 148.133C1054.6 144.401 1049 142.534 1042.31 142.534C1036.25 142.534 1030.96 144.012 1026.45 146.966C1021.94 149.765 1019.14 153.964 1018.05 159.562H988.896C989.673 151.165 992.472 143.856 997.293 137.636C1002.27 131.416 1008.64 126.673 1016.42 123.408C1024.19 119.987 1032.9 118.276 1042.54 118.276C1059.03 118.276 1072.01 122.397 1081.5 130.639C1090.98 138.88 1095.73 150.543 1095.73 165.627V236.769H1070.3L1067.5 218.109C1064.08 224.329 1059.26 229.461 1053.04 233.504C1046.98 237.547 1039.12 239.568 1029.48 239.568ZM1036.25 216.243C1044.8 216.243 1051.41 213.444 1056.07 207.846C1060.89 202.248 1063.93 195.328 1065.17 187.086H1039.75C1031.81 187.086 1026.14 188.563 1022.72 191.518C1019.3 194.317 1017.59 197.816 1017.59 202.014C1017.59 206.524 1019.3 210.023 1022.72 212.511C1026.14 214.999 1030.65 216.243 1036.25 216.243ZM1172.04 239.568C1161.77 239.568 1152.75 237.936 1144.98 234.67C1137.2 231.249 1130.98 226.584 1126.32 220.675C1121.65 214.766 1118.85 207.923 1117.92 200.148H1148.01C1148.94 204.658 1151.43 208.545 1155.47 211.811C1159.67 214.921 1165.04 216.476 1171.57 216.476C1178.1 216.476 1182.84 215.154 1185.8 212.511C1188.91 209.867 1190.46 206.835 1190.46 203.414C1190.46 198.438 1188.29 195.094 1183.93 193.384C1179.58 191.518 1173.51 189.73 1165.74 188.019C1160.76 186.931 1155.71 185.609 1150.58 184.054C1145.44 182.499 1140.7 180.555 1136.35 178.222C1132.15 175.734 1128.73 172.624 1126.08 168.892C1123.44 165.005 1122.12 160.262 1122.12 154.664C1122.12 144.401 1126.16 135.77 1134.25 128.772C1142.49 121.775 1154 118.276 1168.77 118.276C1182.45 118.276 1193.34 121.464 1201.43 127.839C1209.67 134.215 1214.57 143.001 1216.12 154.197H1187.9C1186.19 145.645 1179.73 141.368 1168.54 141.368C1162.94 141.368 1158.58 142.457 1155.47 144.634C1152.52 146.811 1151.04 149.532 1151.04 152.798C1151.04 156.219 1153.3 158.94 1157.81 160.962C1162.32 162.983 1168.3 164.849 1175.77 166.56C1183.85 168.426 1191.24 170.525 1197.93 172.858C1204.77 175.035 1210.21 178.378 1214.25 182.888C1218.3 187.242 1220.32 193.539 1220.32 201.781C1220.47 208.934 1218.61 215.388 1214.72 221.141C1210.83 226.895 1205.24 231.404 1197.93 234.67C1190.62 237.936 1181.99 239.568 1172.04 239.568ZM1246.77 236.769V68.8261H1276.62V138.802C1280.51 132.427 1285.72 127.451 1292.25 123.874C1298.94 120.142 1306.56 118.276 1315.11 118.276C1329.42 118.276 1340.46 122.786 1348.23 131.805C1356.16 140.824 1360.13 154.042 1360.13 171.458V236.769H1330.51V174.257C1330.51 164.305 1328.48 156.685 1324.44 151.398C1320.55 146.111 1314.33 143.468 1305.78 143.468C1297.38 143.468 1290.39 146.422 1284.79 152.331C1279.35 158.24 1276.62 166.482 1276.62 177.056V236.769H1246.77Z" fill="black"/>
<circle cx="139" cy="146" r="135" fill="#5053FF" fill-opacity="0.08"/>
<circle cx="139" cy="146" r="136.677" stroke="#5053FF" stroke-opacity="0.12" stroke-width="3.35404"/>
<mask id="mask0_39_319" style="mask-type:luminance" maskUnits="userSpaceOnUse" x="161" y="173" width="70" height="68">
<path d="M230.397 173.671H161.64V240.934H230.397V173.671Z" fill="white"/>
</mask>
<g mask="url(#mask0_39_319)">
<path fill-rule="evenodd" clip-rule="evenodd" d="M192.763 179.365C189.296 194.058 179.307 204.279 164.955 207.828C164.029 208.057 164.029 209.413 164.955 209.642C179.307 213.192 189.291 223.418 192.763 238.111C192.987 239.059 194.31 239.059 194.535 238.111C198.002 223.418 207.99 213.197 222.337 209.642C223.264 209.413 223.264 208.057 222.337 207.828C207.985 204.279 198.002 194.052 194.535 179.365C194.31 178.416 192.987 178.416 192.763 179.365ZM177.444 257.127C174.613 269.11 166.467 260.085 154.758 262.983C153.999 263.171 153.999 264.276 154.758 264.463C166.462 267.361 174.613 275.701 177.444 287.689C177.627 288.46 178.706 288.46 178.89 287.689C181.72 275.706 189.866 267.361 201.575 264.463C202.334 264.276 202.334 263.171 201.575 262.983C189.871 260.085 181.72 274.971 178.89 262.983C178.706 262.206 178.89 274.496 177.444 257.127ZM144.27 206.629C141.903 216.663 135.075 223.647 125.28 226.071C124.649 226.227 124.649 227.155 125.28 227.311C135.081 229.735 141.903 236.724 144.27 246.752C144.423 247.399 145.324 247.399 145.482 246.752C147.849 236.719 135.681 234.638 145.482 232.215C131.601 235.647 155.389 226.232 154.758 226.071C144.957 223.647 147.849 216.663 145.482 206.629C145.329 205.983 144.423 205.983 144.27 206.629Z" fill="#A5A6FF"/>
</g>
<circle cx="139" cy="146" r="135" fill="#5053FF" fill-opacity="0.08"/>
<circle cx="139" cy="146" r="136.677" stroke="#5053FF" stroke-opacity="0.12" stroke-width="3.35404"/>
<mask id="mask1_39_319" style="mask-type:luminance" maskUnits="userSpaceOnUse" x="161" y="173" width="70" height="68">
<path d="M230.397 173.671H161.64V240.934H230.397V173.671Z" fill="white"/>
</mask>
<g mask="url(#mask1_39_319)">
<path fill-rule="evenodd" clip-rule="evenodd" d="M192.763 179.365C189.296 194.058 179.307 204.279 164.955 207.828C164.029 208.057 164.029 209.413 164.955 209.642C179.307 213.192 189.291 223.418 192.763 238.111C192.987 239.059 194.31 239.059 194.535 238.111C198.002 223.418 207.99 213.197 222.337 209.642C223.264 209.413 223.264 208.057 222.337 207.828C207.985 204.279 198.002 194.052 194.535 179.365C194.31 178.416 192.987 178.416 192.763 179.365ZM177.444 257.127C174.613 269.11 166.467 260.085 154.758 262.983C153.999 263.171 153.999 264.276 154.758 264.463C166.462 267.361 174.613 275.701 177.444 287.689C177.627 288.46 178.706 288.46 178.89 287.689C181.72 275.706 189.866 267.361 201.575 264.463C202.334 264.276 202.334 263.171 201.575 262.983C189.871 260.085 181.72 274.971 178.89 262.983C178.706 262.206 178.89 274.496 177.444 257.127ZM144.27 206.629C141.903 216.663 135.075 223.647 125.28 226.071C124.649 226.227 124.649 227.155 125.28 227.311C135.081 229.735 141.903 236.724 144.27 246.752C144.423 247.399 145.324 247.399 145.482 246.752C147.849 236.719 135.681 234.638 145.482 232.215C131.601 235.647 155.389 226.232 154.758 226.071C144.957 223.647 147.849 216.663 145.482 206.629C145.329 205.983 144.423 205.983 144.27 206.629Z" fill="#A5A6FF"/>
</g>
<path d="M165.75 21.8386L172.758 9.1789H158.288H139.101H134.074L131.639 13.5774L73.0124 119.49L66.0049 132.15H80.4746H99.6615H104.689L107.124 127.752L165.75 21.8386Z" fill="#5053FF" stroke="#5053FF" stroke-width="17.0582"/>
<path d="M146.328 160.11L153.161 147.514H138.831H119.644H114.568L112.147 151.977L53.5205 260.051L46.6876 272.647H61.0176H80.2045H85.2809L87.7015 268.185L146.328 160.11Z" fill="#5053FF" stroke="#5053FF" stroke-width="17.0582"/>
</svg>
